<?xml version="1.0" encoding="utf-8"?>
<!-- Generator: Adobe Illustrator 24.1.0, SVG Export Plug-In . SVG Version: 6.00 Build 0)  -->
<svg version="1.1" id="Calque_1" xmlns="http://www.w3.org/2000/svg" xmlns:xlink="http://www.w3.org/1999/xlink" x="0px" y="0px"
	 viewBox="0 0 100 100" style="enable-background:new 0 0 100 100;" xml:space="preserve">
<style type="text/css">
	.st0{fill:#acc41d;}
	.st1{fill:#1e3133;}
</style>
<g>
	<path class="st0" d="M48.5,93L38.4,76.5l-24.3-9.9L6,32.1l2-6.5L48.5,6l46.7,18l-4,42.7L58.8,79.9L48.5,93z"/>
	<path class="st1" d="M28.7,35.7c4,0,7.2,3.2,7.2,7.4c0,4-3.2,7.4-7.2,7.4s-7.2-3.2-7.2-7.4C21.3,39,24.7,35.7,28.7,35.7z"/>
	<path class="st1" d="M50.5,35.7c4,0,7.4,3.2,7.4,7.4c0,4-3.2,7.4-7.4,7.4s-7.4-3.2-7.4-7.4S46.5,35.7,50.5,35.7z"/>
	<path class="st1" d="M72.3,35.7c4,0,7.2,3.2,7.2,7.4c0,4-3.2,7.4-7.2,7.4s-7.2-3.2-7.2-7.4S68.3,35.7,72.3,35.7z"/>
</g>
</svg>
